<?xml version="1.0" standalone="no"?>
<!DOCTYPE svg PUBLIC "-//W3C//DTD SVG 20010904//EN"
 "http://www.w3.org/TR/2001/REC-SVG-20010904/DTD/svg10.dtd">
<svg version="1.0" xmlns="http://www.w3.org/2000/svg"
 width="410.000000pt" height="402.000000pt" viewBox="0 0 410.000000 402.000000"
 preserveAspectRatio="xMidYMid meet">

<g transform="translate(0.000000,402.000000) scale(0.100000,-0.100000)"
fill="#000000" stroke="none">
<path d="M0 2010 l0 -2010 2050 0 2050 0 0 2010 0 2010 -2050 0 -2050 0 0
-2010z m3900 1385 l0 -285 -1855 0 -1855 0 0 285 0 285 1855 0 1855 0 0 -285z
m-3240 -800 l0 -285 -235 0 -235 0 0 285 0 285 235 0 235 0 0 -285z m545 0 l0
-280 -237 -3 -238 -2 0 285 0 285 238 -2 237 -3 0 -280z m535 0 l0 -285 -235
0 -235 0 0 285 0 285 235 0 235 0 0 -285z m545 0 l0 -280 -237 -3 -238 -2 0
285 0 285 238 -2 237 -3 0 -280z m535 0 l0 -285 -235 0 -235 0 0 285 0 285
235 0 235 0 0 -285z m545 0 l0 -280 -237 -3 -238 -2 0 285 0 285 238 -2 237
-3 0 -280z m535 0 l0 -285 -235 0 -235 0 0 285 0 285 235 0 235 0 0 -285z
m-3240 -695 l0 -280 -235 0 -235 0 0 280 0 280 235 0 235 0 0 -280z m548 3
l-3 -278 -237 -3 -238 -2 0 280 0 280 240 0 240 0 -2 -277z m532 -3 l0 -280
-235 0 -235 0 0 280 0 280 235 0 235 0 0 -280z m548 3 l-3 -278 -237 -3 -238
-2 0 280 0 280 240 0 240 0 -2 -277z m532 -3 l0 -280 -235 0 -235 0 0 280 0
280 235 0 235 0 0 -280z m548 3 l-3 -278 -237 -3 -238 -2 0 280 0 280 240 0
240 0 -2 -277z m532 -3 l0 -280 -235 0 -235 0 0 280 0 280 235 0 235 0 0 -280z
m-3240 -690 l0 -280 -235 0 -235 0 0 280 0 280 235 0 235 0 0 -280z m548 3
l-3 -278 -237 -3 -238 -2 0 280 0 280 240 0 240 0 -2 -277z m532 -3 l0 -280
-235 0 -235 0 0 280 0 280 235 0 235 0 0 -280z m548 3 l-3 -278 -237 -3 -238
-2 0 280 0 280 240 0 240 0 -2 -277z m532 -3 l0 -280 -235 0 -235 0 0 280 0
280 235 0 235 0 0 -280z m548 3 l-3 -278 -237 -3 -238 -2 0 280 0 280 240 0
240 0 -2 -277z m532 -3 l0 -280 -235 0 -235 0 0 280 0 280 235 0 235 0 0 -280z
m-3240 -690 l0 -280 -235 0 -235 0 0 280 0 280 235 0 235 0 0 -280z m548 -2
l2 -278 -240 0 -240 0 0 280 0 280 238 -2 237 -3 3 -277z m532 2 l0 -280 -235
0 -235 0 0 280 0 280 235 0 235 0 0 -280z m550 0 l0 -280 -240 0 -240 0 0 280
0 280 240 0 240 0 0 -280z m530 0 l0 -280 -235 0 -235 0 0 280 0 280 235 0
235 0 0 -280z m550 0 l0 -280 -240 0 -240 0 0 280 0 280 240 0 240 0 0 -280z
m530 0 l0 -280 -235 0 -235 0 0 280 0 280 235 0 235 0 0 -280z"/>
</g>
</svg>
